<?xml version="1.0" encoding="UTF-8"?>
<!-- Generator: Adobe Illustrator 20.1.0, SVG Export Plug-In . SVG Version: 6.00 Build 0)  -->
<svg version="1.1" xmlns="http://www.w3.org/2000/svg" xmlns:xlink="http://www.w3.org/1999/xlink" x="0px" y="0px" viewBox="0 0 39.5 31.7" style="enable-background:new 0 0 39.5 31.7;" xml:space="preserve">
<style type="text/css">
	.st0{fill:#E8E8E8;}
	.st1{fill:#575757;}
	.st2{display:none;fill:none;}
	.st3{fill:#F2F2F2;}
	.st4{clip-path:url(#SVGID_2_);}
	.st5{clip-path:url(#SVGID_2_);fill:url(#SVGID_3_);}
	.st6{clip-path:url(#SVGID_5_);}
	.st7{clip-path:url(#SVGID_5_);fill:url(#SVGID_6_);}
	.st8{fill:#FFFFFF;}
	.st9{fill:url(#SVGID_7_);}
	.st10{fill:#808080;}
	.st11{fill:#00528C;}
	.st12{fill:#BD1D1F;}
	.st13{fill:#E60817;}
	.st14{fill:none;stroke:#E60817;stroke-width:2.9058;stroke-miterlimit:10;}
	.st15{fill:none;stroke:#E60817;stroke-width:2.218;stroke-miterlimit:10;}
	.st16{fill:#FF071D;}
	.st17{fill:#909293;}
	.st18{fill:none;stroke:#FF1020;stroke-width:2;stroke-linecap:round;stroke-linejoin:round;stroke-miterlimit:10;}
	.st19{fill:#585758;}
	.st20{fill:#595859;}
	.st21{clip-path:url(#SVGID_45_);}
	.st22{clip-path:url(#SVGID_47_);}
	.st23{fill:#FFFFFF;stroke:#FFFFFF;stroke-width:1.0951;stroke-miterlimit:10;}
	.st24{fill:none;stroke:#FFFFFF;stroke-width:3;stroke-miterlimit:10;}
	.st25{clip-path:url(#SVGID_51_);fill:#FFFFFF;}
	.st26{clip-path:url(#SVGID_53_);fill:#FFFFFF;}
	.st27{clip-path:url(#SVGID_55_);}
	.st28{clip-path:url(#SVGID_57_);}
	.st29{fill:#FF1020;}
	.st30{fill:none;}
	.st31{clip-path:url(#SVGID_63_);}
	.st32{clip-path:url(#SVGID_65_);}
	.st33{clip-path:url(#SVGID_67_);}
	.st34{clip-path:url(#SVGID_69_);}
	.st35{clip-path:url(#SVGID_71_);}
	.st36{clip-path:url(#SVGID_73_);}
	.st37{clip-path:url(#SVGID_75_);fill:#595859;}
	.st38{clip-path:url(#SVGID_77_);fill:#595859;}
	.st39{clip-path:url(#SVGID_79_);fill:#595859;}
	.st40{clip-path:url(#SVGID_81_);fill:#595859;}
	.st41{fill:#5E5E5E;}
	.st42{clip-path:url(#SVGID_83_);}
	.st43{clip-path:url(#SVGID_85_);}
</style>
<symbol id="New_Symbol_1_" viewBox="-718 -611 1436 339">
	<rect x="-718" y="-611" class="st0" width="1436" height="339"/>
	
		<text transform="matrix(1 0 0 -1 -543.499 -394.6953)" class="st1" style="font-family:'ToyotaDisplay-Bold'; font-size:19.2424px;">MODELOS</text>
	<g>
		<text transform="matrix(1 0 0 -1 -543.499 -436.2744)"><tspan x="0" y="0" class="st1" style="font-family:'ToyotaDisplay-Regular'; font-size:12.9129px;">ETIOS HATCH</tspan><tspan x="0" y="20.9" class="st1" style="font-family:'ToyotaDisplay-Regular'; font-size:12.9129px;">HILUX SIMPLES</tspan><tspan x="0" y="41.8" class="st1" style="font-family:'ToyotaDisplay-Regular'; font-size:12.9129px;">ETIOS SEDÃ</tspan><tspan x="0" y="62.7" class="st1" style="font-family:'ToyotaDisplay-Regular'; font-size:12.9129px;">SW4</tspan><tspan x="0" y="83.6" class="st1" style="font-family:'ToyotaDisplay-Regular'; font-size:12.9129px;">ETIOS CROSS</tspan></text>
	</g>
	<g>
		<text transform="matrix(1 0 0 -1 -393.1992 -432.6641)"><tspan x="0" y="0" class="st1" style="font-family:'ToyotaDisplay-Regular'; font-size:12.9129px;">RAV4</tspan><tspan x="0" y="20.9" class="st1" style="font-family:'ToyotaDisplay-Regular'; font-size:12.9129px;">COROLLA</tspan><tspan x="0" y="41.8" class="st1" style="font-family:'ToyotaDisplay-Regular'; font-size:12.9129px;">CAMRV</tspan><tspan x="0" y="62.7" class="st1" style="font-family:'ToyotaDisplay-Regular'; font-size:12.9129px;">HILUX DUPLA</tspan><tspan x="0" y="83.6" class="st1" style="font-family:'ToyotaDisplay-Regular'; font-size:12.9129px;">PRIUS</tspan></text>
	</g>
	<rect x="-544" y="-408" class="st1" width="243" height="2"/>
	
		<text transform="matrix(1 0 0 -1 -269.3599 -394.6953)" class="st1" style="font-family:'ToyotaDisplay-Bold'; font-size:19.2424px;">SEMI NOVOS</text>
	<g>
		
			<text transform="matrix(1 0 0 -1 -269.3599 -436.2744)" class="st1" style="font-family:'ToyotaDisplay-Regular'; font-size:12.9129px;">SEMI NOVOS</text>
	</g>
	<g>
		
			<text transform="matrix(1 0 0 -1 -106.5161 -457.251)" class="st1" style="font-family:'ToyotaDisplay-Regular'; font-size:12.9129px;">REVISÕES</text>
	</g>
	<g>
		
			<text transform="matrix(1 0 0 -1 -106.5161 -436.2744)" class="st1" style="font-family:'ToyotaDisplay-Regular'; font-size:12.9129px;">SERVIÇOS</text>
	</g>
	<g>
		
			<text transform="matrix(1 0 0 -1 -106.5161 -478.2295)" class="st1" style="font-family:'ToyotaDisplay-Regular'; font-size:12.9129px;">PEÇAS E ACESSÓRIOS</text>
	</g>
	<rect x="-270" y="-408" class="st1" width="123" height="2"/>
	
		<text transform="matrix(1 0 0 -1 235.1758 -394.6953)" class="st1" style="font-family:'ToyotaDisplay-Bold'; font-size:19.2424px;">F&amp;I</text>
	<g>
		<text transform="matrix(1 0 0 -1 235.1758 -436.2744)"><tspan x="0" y="0" class="st1" style="font-family:'ToyotaDisplay-Regular'; font-size:12.9129px;">SEGUROS</tspan><tspan x="0" y="20.9" class="st1" style="font-family:'ToyotaDisplay-Regular'; font-size:12.9129px;">CONSÓRCIO</tspan><tspan x="0" y="41.8" class="st1" style="font-family:'ToyotaDisplay-Regular'; font-size:12.9129px;">BANCO TOYOTA</tspan></text>
	</g>
	<rect x="235" y="-408" class="st1" width="123" height="2"/>
	<g>
		<text transform="matrix(1 0 0 -1 397.6318 -436.2744)"><tspan x="0" y="0" class="st1" style="font-family:'ToyotaDisplay-Regular'; font-size:12.9129px;">SOBRE</tspan><tspan x="0" y="20.9" class="st1" style="font-family:'ToyotaDisplay-Regular'; font-size:12.9129px;">CONTATO</tspan><tspan x="0" y="41.8" class="st1" style="font-family:'ToyotaDisplay-Regular'; font-size:12.9129px;">TRABALHE CONOSCO</tspan><tspan x="0" y="62.7" class="st1" style="font-family:'ToyotaDisplay-Regular'; font-size:12.9129px;">RESPONSABILIDADE </tspan></text>
	</g>
	
		<text transform="matrix(1 0 0 -1 397.6318 -394.6953)" class="st1" style="font-family:'ToyotaDisplay-Bold'; font-size:19.2424px;">TOYOVILLE</text>
	<rect x="396" y="-408" class="st1" width="113" height="2"/>
	
		<text transform="matrix(1 0 0 -1 -106.5161 -394.6953)" class="st1" style="font-family:'ToyotaDisplay-Bold'; font-size:19.2424px;">SERVIÇOS</text>
	<rect x="-107" y="-408" class="st1" width="123" height="2"/>
	<g>
		<text transform="matrix(1 0 0 -1 60.8652 -436.2744)"><tspan x="0" y="0" class="st1" style="font-family:'ToyotaDisplay-Regular'; font-size:12.9129px;">BLOG</tspan><tspan x="0" y="20.9" class="st1" style="font-family:'ToyotaDisplay-Regular'; font-size:12.9129px;">FACEBOOK</tspan><tspan x="0" y="41.8" class="st1" style="font-family:'ToyotaDisplay-Regular'; font-size:12.9129px;">YOUTUBE</tspan></text>
	</g>
	
		<text transform="matrix(1 0 0 -1 60.8652 -394.6953)" class="st1" style="font-family:'ToyotaDisplay-Bold'; font-size:19.2424px;">COMUNIDADE</text>
	<rect x="60" y="-408" class="st1" width="112" height="2"/>
	<rect x="-718" y="-611" class="st2" width="1436" height="339"/>
</symbol>
<g id="Layer_1">
	<g id="New_Symbol_3">
	</g>
	<g id="New_Symbol_2">
	</g>
	<g id="New_Symbol_1">
		<g id="New_Symbol">
		</g>
	</g>
	<g>
		<path class="st20" d="M14.1,22.7c0-0.5-0.4-1-0.8-1h-1.8l1.4-5c0.1-0.4-0.1-0.8-0.6-0.9c-0.4-0.1-0.9,0.2-1,0.6l-1.6,6.2    c-0.1,0.2,0,0.5,0.1,0.7c0.2,0.2,0.4,0.3,0.6,0.3h2.8C13.8,23.8,14.1,23.2,14.1,22.7"/>
		<path class="st20" d="M16.6,17.6c0,0.3,0.3,0.6,0.6,0.6c0.3,0,0.6-0.3,0.6-0.6c0-0.3-0.3-0.6-0.6-0.6C16.9,17,16.6,17.3,16.6,17.6    "/>
		<path class="st20" d="M7.2,17c-0.3,0-0.6,0.3-0.6,0.6c0,0.3,0.3,0.6,0.6,0.6c0.3,0,0.6-0.3,0.6-0.6C7.8,17.3,7.5,17,7.2,17"/>
		<path class="st20" d="M23.3,14.5c0-5.6-4.6-10.3-10.2-10.3h-2C5.5,4.2,1.1,9,1.1,14.7v0.6C0.4,15.9,0,16.9,0,17.9    c0,1,0.4,2,1.1,2.7v3.1c0,1.1,0.1,2.4,0.4,3.4L1.6,28h2.8c1.7,2.1,4.4,3.7,7.6,3.7c5.1,0,9.3-4.5,9.3-9.6v-0.4c1.4-0.4,3-2,3-3.8    c0-1.1-0.5-2.3-1.2-3C23.2,14.8,23.3,14.7,23.3,14.5 M2.8,25.9c-0.2-0.7-0.4-1.5-0.4-2.2v-1.6c0,1.3,0.6,3.1,1.1,3.8L2.8,25.9    L2.8,25.9z M19.2,22.1c0,4.2-3.2,8-7.4,8c-2.2,0-3.9-1.4-5.3-2.1h0.9c0,0,0-0.3,0-0.3c0.1,0.1,0.3,0,0.4,0c0.5,0,0.9-0.5,0.9-1    c0-0.5-0.4-0.9-0.9-0.9c-0.2,0-0.3,0.1-0.5,0.1H5.4c-0.6-0.7-0.8-2.4-0.8-3.8v-5.8c0-4.2,3.1-7.7,7.3-7.7c4.2,0,7.3,3.4,7.3,7.7    L19.2,22.1L19.2,22.1z M21.1,14c-1-4.1-4.7-7.1-9-7.1c-4.4,0-8,3.1-9,7.1c-0.2,0-0.3-0.5-0.5-0.5c0.2-4.5,4-8.7,8.5-8.7h2    c4.5,0,8.3,4.2,8.5,8.7C21.5,13.5,21.3,14,21.1,14"/>
		<path class="st20" d="M16.6,22.1c-0.5,0-0.8,0.4-0.8,0.8c0,1-0.3,1.7-0.8,2.1c-0.9,0.8-2.3,0.7-2.4,0.7c-0.5,0-0.8,0.3-0.9,0.7    c0,0.4,0.3,0.8,0.7,0.9c0,0,0.2,0,0.4,0c0.7,0,2.1-0.1,3.2-1.1c0.9-0.8,1.3-1.9,1.3-3.4C17.4,22.5,17.1,22.1,16.6,22.1"/>
		<polygon class="st20" points="31.6,8.9 30.4,7.7 29.1,8.9 31.6,11.4 35.7,7.2 34.5,6   "/>
		<path class="st20" d="M39.5,1.9c0-1.1-0.9-1.9-1.9-1.9H26.1c-1.1,0-1.9,0.9-1.9,1.9v9.5c0,1.1,0.9,1.9,1.9,1.9h11.6    c1.1,0,1.9-0.9,1.9-1.9V1.9z M38.1,12.6H26.6c-0.4,0-0.4-0.4-0.4-0.8V4.9h12.6v6.9C38.8,12.2,38.5,12.6,38.1,12.6 M38.8,2.3v1.9    H26.2V2.3c0-0.4,0-1.6,0.4-1.6h11.5C38.5,0.7,38.8,1.9,38.8,2.3"/>
	</g>
</g>
<g id="Layer_2">
</g>
<script xmlns=""/></svg>