<?xml version="1.0" encoding="UTF-8"?>
<!-- Generator: Adobe Illustrator 18.1.0, SVG Export Plug-In . SVG Version: 6.00 Build 0)  -->
<svg version="1.1" id="Capa_1" xmlns="http://www.w3.org/2000/svg" xmlns:xlink="http://www.w3.org/1999/xlink" x="0px" y="0px" viewBox="0 0 841.9 595.3" enable-background="new 0 0 841.9 595.3" xml:space="preserve">
<g>
	<g id="Layer_1_107_">
		<g>
			<path fill="#BF0000" d="M705.1,88.3c-5.8-6.8-14.3-10.6-23.3-10.6H256L250,41.7C247.6,27,234.8,16,219.6,16h-69.3     c-17,0-30.8,13.7-30.8,30.8s13.7,30.8,30.8,30.8h43.1l57.3,344.1c0.3,1.4,0.8,2.5,1.4,3.8c0.4,1.7,0.8,3.1,1.7,4.7     c1,2.1,2.3,3.7,3.7,5.5c0.8,1.1,1.8,2.4,3,3.4c1.8,1.7,3.8,2.8,5.9,4.1c1.1,0.6,2.3,1.6,3.4,2c3.5,1.6,7.4,2.3,11.3,2.3h339     c17,0,30.8-13.7,30.8-30.8s-13.7-30.8-30.8-30.8H307.5l-5.1-30.8H651c15.4,0,28.4-11.2,30.5-26.4l30.8-215.7     C713.8,104,711.1,94.9,705.1,88.3z M646.4,139.2l-8.8,61.5H527.9v-61.5H646.4z M496.8,139.2v61.5h-92.3v-61.5H496.8z      M496.8,231.8v61.5h-92.3v-61.5H496.8z M373.6,139.2v61.5h-92.3c-1.7,0-3.1,0.4-4.7,0.8L266.2,139L373.6,139.2L373.6,139.2z      M281.7,231.8h92.1v61.5H292L281.7,231.8z M527.8,293.3v-61.5h105.4l-8.8,61.5H527.8z"/>
			<circle fill="#BF0000" cx="327.5" cy="524.4" r="46.2"/>
			<circle fill="#BF0000" cx="604.7" cy="524.4" r="46.2"/>
		</g>
	</g>
</g>
<script xmlns=""/></svg>