<?xml version="1.0" encoding="UTF-8"?>
<!-- Generator: Adobe Illustrator 20.1.0, SVG Export Plug-In . SVG Version: 6.00 Build 0)  -->
<svg version="1.1" id="Layer_1" xmlns="http://www.w3.org/2000/svg" xmlns:xlink="http://www.w3.org/1999/xlink" x="0px" y="0px" viewBox="0 0 150 150" style="enable-background:new 0 0 150 150;" xml:space="preserve">
<style type="text/css">
	.st0{fill:#505050;}
</style>
<g>
	<path class="st0" d="M96.5,100h-9.6c-0.9,0-1.7,0.6-1.7,1.5s0.8,1.5,1.7,1.5h9.6c0.9,0,1.7-0.6,1.7-1.5S97.5,100,96.5,100z"/>
	<path class="st0" d="M74.5,70.7c8.2,0,14.8-8,14.8-17.8s-6.6-17.8-14.8-17.8c-8.2,0-14.8,8-14.8,17.8S66.4,70.7,74.5,70.7z    M74.5,38.5C80.8,38.5,86,45,86,52.9s-5.1,14.4-11.4,14.4c-6.3,0-11.4-6.5-11.4-14.4S68.2,38.5,74.5,38.5z"/>
	<path class="st0" d="M147.2,82.8c-0.1-0.5-0.3-0.7-0.8-1L134.3,74l0,0.1c-0.7-0.4-1.6-0.3-2.1,0.2l-7.1,7.4l-7.1-7.4   c-0.6-0.6-1.5-0.6-2.1-0.2l0,0L105,81.3L87.8,70l0,0c-0.1,0-0.1-0.1-0.2-0.1c-0.7-0.3-1.4-0.1-1.9,0.4L74.5,81.9L63.4,70.3   c-0.5-0.5-1.3-0.7-1.9-0.4c-0.1,0-0.1,0.1-0.2,0.1l0,0L44.1,81.3l-10.9-7.1l0,0c-0.7-0.4-1.6-0.4-2.1,0.2L24,81.8l-7.1-7.4   c-0.6-0.6-1.5-0.7-2.1-0.2l0,0L2.7,82.1c-0.4,0.3-0.7,0.7-0.8,1.2c-0.4,3.6-2.4,21.5-2.4,22.7l3.4,0c0-1,1.3-13.1,2.3-21.5   l10.1-6.7l6.7,7.2v16.1c0,0.9,1.1,1.7,2,1.7s2-0.8,2-1.7V84.9l6.7-7.2l9.7,6.6C41.9,89.7,40,110,40,112h3.4c0-1,1.4-16.9,2.4-27.6   l15-9.9l1.6,19.3c0.1,0.6,0.5,1.2,1,1.4c0.2,0.1,0.4,0.1,0.6,0.1c0.4,0,0.8-0.1,1.1-0.4l3.4-2.9l1.8,3.2l-4.1,16.1   c-0.2,0.9,0.3,1.8,1.2,2.1c0.1,0,0.3,0.1,0.4,0.1c0.8,0,1.4-0.8,1.6-1.6l4-15.8h2.4l4,15.8c0.2,0.8,0.9,1.4,1.6,1.4   c0.1,0,0.3,0.1,0.4,0c0.9-0.2,1.4-1.1,1.2-2l-4.1-16.1l1.8-3.2l3.4,2.9c0.3,0.3,0.7,0.4,1.1,0.4c0.2,0,0.4,0,0.6-0.1   c0.6-0.2,1-0.8,1-1.4l1.6-19.3l15,9.9c1,10.7,2.4,26.6,2.4,27.6h3.4c0-2-1.9-22.3-2.4-27.7l9.6-6.5l6.7,7.1v16.1   c0,0.9,1.1,1.7,2,1.7s2-0.8,2-1.7V84.9l6.7-7.2l10.2,6.7c0.9,8.4,2.2,20.1,2.2,21l1.7-0.5h1.7C149.5,104,147.6,86.4,147.2,82.8z    M64.2,76l7.9,8.2l-1.8,1.7L68,88c0,0,0,0,0,0l-2.5,2.1L64.2,76z M76,93h-3l-2-3.5l2.7-2.3l0.8-0.7l1.3,1.1l2.2,1.8L76,93z    M84,90.1L82,88c0,0,0,0,0,0l-4.7-3.7l7.9-8.2L84,90.1z"/>
	<path class="st0" d="M125.1,75.6c5.8,0,10.5-5.6,10.5-12.5s-4.7-12.5-10.5-12.5c-5.8,0-10.5,5.6-10.5,12.5S119.3,75.6,125.1,75.6z    M125.1,54c3.9,0,7.1,4.1,7.1,9.1s-3.2,9.1-7.1,9.1c-3.9,0-7.1-4.1-7.1-9.1S121.1,54,125.1,54z"/>
	<path class="st0" d="M24,75.6c5.8,0,10.5-5.6,10.5-12.5S29.8,50.6,24,50.6c-5.8,0-10.5,5.6-10.5,12.5S18.2,75.6,24,75.6z M24,54   c3.9,0,7.1,4.1,7.1,9.1s-3.2,9.1-7.1,9.1c-3.9,0-7.1-4.1-7.1-9.1S20.1,54,24,54z"/>
</g>
<script xmlns=""/></svg>