<?xml version="1.0" encoding="UTF-8"?>
<!-- Generator: Adobe Illustrator 19.0.0, SVG Export Plug-In . SVG Version: 6.00 Build 0)  -->
<svg version="1.1" id="Layer_1" xmlns="http://www.w3.org/2000/svg" xmlns:xlink="http://www.w3.org/1999/xlink" x="0px" y="0px" viewBox="-223 24.5 512.5 512.5" style="enable-background:new -223 24.5 512.5 512.5;" xml:space="preserve">
<style type="text/css">
	.st0{fill:url(#SVGID_1_);}
</style>
<g transform="translate(1 1)">
	<g>
		<linearGradient id="SVGID_1_" gradientUnits="userSpaceOnUse" x1="-180.9926" y1="279.7715" x2="245.4581" y2="279.7715">
			<stop offset="0" style="stop-color:#1E4962"/>
			<stop offset="1" style="stop-color:#5994B7"/>
		</linearGradient>
		<path class="st0" d="M244,291.9l-59.7-85.3c-0.9-0.9-1.9-1.7-3.1-2.3c-0.1-0.1-0.2-0.1-0.3-0.2c-2.6-1.6-5.5-1.9-8-0.9H113    l-7.5-34.1h46.4c3.4,0,5.1-2.6,6.8-5.1s1.7-6,0-8.5l-34.1-51.2c-1.7-1.7-4.3-3.4-6.8-3.4H90.5l-15.4-70c-0.6-3.1-2.6-5.3-5.3-6.3    c-2.1-1.1-4.4-1.3-6.5-0.5H-1.7c-4.3,0-7.7,2.6-8.5,6.8l-15.4,70h-27.3c-2.6,0-5.1,1.7-7.7,4.3l-34.1,51.2c-1.7,2.6-1.7,6,0,8.5    s4.3,4.3,7.7,4.3h46.4l-7.5,34.1h-64.5c-0.2,0-0.4,0-0.6,0.1c-1.2,0.1-2.5,0.3-3.6,0.8c-1.4,1.1-2.6,2.6-3.2,4.3l-59.1,84.4    c-1.7,2.6-2.6,6-0.9,8.5s4.3,4.3,7.7,4.3h101.7l-31.9,145.1h-35.6c-5.1,0-8.5,3.4-8.5,8.5v68.3c0,5.1,3.4,8.5,8.5,8.5h341.3    c5.1,0,8.5-3.4,8.5-8.5v-68.3c0-5.1-3.4-8.5-8.5-8.5h-35.6l-13-59.2c0-0.2,0-0.3,0-0.5c0-2.1-0.4-3.9-1.3-5.2l-17.6-80.1h101.7    c3.4,0,6-1.7,7.7-5.1C245.8,297.9,245.8,294.5,244,291.9z M160.6,220.3L128.4,273l-11.6-52.8H160.6z M3.5,48.6l15.8,14.3    L-4.3,84.1L3.5,48.6z M69.5,85.3L44.9,63.2l16.3-15.1L69.5,85.3z M45.5,151.1l32.5-27l6.2,27.9H46.6L45.5,151.1z M60.3,117.9    l-27.8,22.5L5.2,117.9C5.2,117.9,60.3,117.9,60.3,117.9z M4.1,100.8l28.3-26.1l28.9,26.1H4.1z M31.9,51.5L20.4,41.1h23.1    L31.9,51.5z M19,151.4l-0.7,0.6h-37.4l5.9-27.1L19,151.4z M40.5,169.1L82,203.2H33.4c-0.9-0.1-1.9-0.1-2.9,0h-47.9l41.2-34.1H40.5    z M-45.6,272.7l11.5-52.4h44.9L-45.6,272.7z M32.5,223.3l70.5,65.3H-38L32.5,223.3z M84.6,305.6l-51.8,23.6l-51.8-23.6H84.6z     M54.1,220.3h45.2l11.7,52.9L54.1,220.3z M-63.9,274.7l-33.3-54.4h45.2L-63.9,274.7z M-53.4,308.4l65.8,30.2L-68,375.3    L-53.4,308.4z M32.8,347.9l90,41.3l-90,31l-90-31L32.8,347.9z M53.3,338.6l65.5-30.1l14.7,66.7L53.3,338.6z M92.6,189.9    l-25.3-20.9H88L92.6,189.9z M136.5,152h-34.8l-7.5-34.1h19.3L136.5,152z M-70.8,152l23-34.1h18.4l-7.5,34.1H-70.8z M-2.8,169.1    l-24.4,19.8l4.3-19.8H-2.8z M-112.9,226.7l38.4,61.9h-81.7L-112.9,226.7z M-73.8,401.7l80.2,27.6l-61.9,21.3h-29L-73.8,401.7z     M32.8,438.5l35.3,12.2H-2.5L32.8,438.5z M194.6,484.8h-34.1c-5.1,0-8.5,3.4-8.5,8.5s3.4,8.5,8.5,8.5h34.1v17.1h-324.3v-17.1h34.1    c5.1,0,8.5-3.4,8.5-8.5s-3.4-8.5-8.5-8.5h-34.1v-17.1h34.1h256h34.1V484.8z M121.2,450.7l-61.9-21.3l80.1-27.6l10.8,48.9    L121.2,450.7L121.2,450.7z M138.5,288.5l38.8-62.5l43.8,62.5H138.5z"/>
	</g>
</g>
<script xmlns=""/></svg>