<svg xmlns="http://www.w3.org/2000/svg" width="535.393" height="535.425" viewBox="29.77 79.29 535.393 535.425"><path fill="#FEC20E" d="M544.64 503.04L403.01 361.417l-45.48 45.49 6.996 6.99c5.19 5.185 5.19 13.608 0 18.793-2.59 2.583-5.994 3.88-9.388 3.88-3.387 0-6.798-1.303-9.4-3.88l-16.38-16.388s-.013 0-.013-.024l-52.414-52.42-33.65-33.627-16.4-16.41c-5.185-5.186-5.185-13.603 0-18.794 5.19-5.173 13.602-5.173 18.787 0l7.012 7.012 45.466-45.467-40.717-40.728c7.09-37.18-4.65-76.005-31.57-102.912-21.68-21.698-50.538-33.64-81.22-33.64-10.94 0-21.804 1.543-32.275 4.603-4.494 1.31-7.983 4.923-9.15 9.46-1.166 4.535.15 9.363 3.477 12.678l43.807 43.814c9.273 9.28 9.273 24.37 0 33.65l-16.526 16.532c-4.488 4.488-10.47 6.97-16.83 6.97s-12.333-2.48-16.834-6.97l-43.807-43.8c-3.304-3.33-8.137-4.65-12.674-3.49-4.555 1.174-8.144 4.65-9.466 9.162-12.78 43.82 1.62 91.108 36.7 120.514 20.703 17.34 46.812 26.89 73.534 26.89 7.358 0 14.715-.72 21.93-2.132l83.548 83.565L113.68 527.107l-7.357-7.334c-2.798-2.81-6.667-4.232-10.644-3.846-3.954.375-7.513 2.482-9.746 5.774l-38.788 57.273c-3.578 5.28-2.905 12.334 1.6 16.835l15.008 15.007c2.572 2.572 5.983 3.9 9.405 3.9 2.588 0 5.178-.763 7.452-2.3l57.254-38.8c3.28-2.22 5.393-5.78 5.768-9.72.375-3.947-1.018-7.852-3.822-10.65l-7.346-7.346 136.386-136.39 184.662 184.638c12.173 12.203 28.365 18.894 45.557 18.894 17.216 0 33.39-6.69 45.564-18.894 25.114-25.103 25.114-65.987.006-91.108zm-26.62 64.522c-6.353 6.364-14.794 9.822-23.8 9.822-8.983 0-17.424-3.46-23.776-9.822-13.114-13.126-13.114-34.467.012-47.58 6.34-6.34 14.78-9.84 23.764-9.84 9.007 0 17.448 3.5 23.8 9.84 13.12 13.114 13.12 34.455 0 47.58z"/><path fill="#FEC20E" d="M551.24 108.31c-8.97-8.965-20.917-13.924-33.626-13.924-12.72 0-24.662 4.96-33.645 13.924L271.453 320.82l67.285 67.29L551.252 175.6c18.55-18.55 18.55-48.735-.012-67.29zm-19.203 38.014L349.4 328.95c-2.595 2.595-5.988 3.88-9.393 3.88-3.393 0-6.792-1.285-9.388-3.88-5.192-5.18-5.192-13.596 0-18.775l182.637-182.65c5.185-5.18 13.602-5.18 18.78 0 5.185 5.197 5.185 13.615 0 18.8z"/><script xmlns=""/></svg>